<svg width="19" height="18" viewBox="0 0 19 18" fill="none" xmlns="http://www.w3.org/2000/svg">
<path fill-rule="evenodd" clip-rule="evenodd" d="M10.75 4.5V8.57531L14.1362 10.6069C14.4914 10.8202 14.6064 11.2811 14.3931 11.6362C14.1798 11.9914 13.7189 12.1064 13.3638 11.8931L9.61375 9.64312C9.38799 9.50749 9.24992 9.26337 9.25 9V4.5C9.25 4.08579 9.58579 3.75 10 3.75C10.4142 3.75 10.75 4.08579 10.75 4.5ZM10 0C7.61024 -0.0059526 5.3174 0.944332 3.6325 2.63906C2.95094 3.32906 2.34531 3.99281 1.75 4.6875V3C1.75 2.58579 1.41421 2.25 1 2.25C0.585786 2.25 0.25 2.58579 0.25 3V6.75C0.25 7.16421 0.585786 7.5 1 7.5H4.75C5.16421 7.5 5.5 7.16421 5.5 6.75C5.5 6.33579 5.16421 6 4.75 6H2.59375C3.26406 5.21062 3.93156 4.46719 4.69281 3.69656C7.6018 0.787593 12.3111 0.764893 15.248 3.64568C18.1849 6.52648 18.253 11.2354 15.4007 14.1999C12.5484 17.1644 7.84035 17.278 4.84844 14.4544C4.6535 14.2702 4.3751 14.2039 4.1181 14.2806C3.8611 14.3574 3.66454 14.5653 3.60247 14.8263C3.54041 15.0872 3.62225 15.3614 3.81719 15.5456C6.75577 18.3187 11.1822 18.7935 14.6422 16.7069C18.1021 14.6202 19.7473 10.4835 18.6656 6.59055C17.5839 2.69759 14.0404 0.00262976 10 0Z" fill="black" fill-opacity="0.38"/>
</svg>
